<svg width="36" height="36" viewBox="0 0 36 36" fill="none" xmlns="http://www.w3.org/2000/svg">
<rect width="36" height="36" rx="18" fill="#0C60D4"/>
<path d="M18 8C14 8 10 8.5 10 12V21.5C10 23.43 11.57 25 13.5 25L12.35 26.15C12.2809 26.2205 12.2342 26.3099 12.2158 26.4069C12.1974 26.5038 12.2082 26.6041 12.2467 26.695C12.2852 26.7859 12.3497 26.8634 12.4322 26.9177C12.5146 26.9719 12.6113 27.0006 12.71 27H13.8C13.93 27 14.06 26.95 14.15 26.85L16 25H20L21.85 26.85C21.94 26.94 22.07 27 22.2 27H23.29C23.74 27 23.96 26.46 23.64 26.15L22.5 25C24.43 25 26 23.43 26 21.5V12C26 8.5 22 8 18 8ZM13.5 23C12.67 23 12 22.33 12 21.5C12 20.67 12.67 20 13.5 20C14.33 20 15 20.67 15 21.5C15 22.33 14.33 23 13.5 23ZM17 16H12V12H17V16ZM22.5 23C21.67 23 21 22.33 21 21.5C21 20.67 21.67 20 22.5 20C23.33 20 24 20.67 24 21.5C24 22.33 23.33 23 22.5 23ZM24 16H19V12H24V16Z" fill="white"/>
</svg>
